<svg xmlns="http://www.w3.org/2000/svg" viewBox="0 0 94.32 57.42"><defs><style>.arrowDown-1{fill:#8e8e8e;}</style></defs><g id="arrowDown"><path class="arrowDown-1" d="M4.1,43l15.54,5.91,24.69,9.39A48.6,48.6,0,0,0,50,60.41c1.27.32,3-.77,4.15-1.21l23.44-8.91c6.16-2.35,12.34-4.65,18.49-7l.32-.12c1.79-.68,1-3.58-.8-2.9L80.07,46.14,55.58,55.47l-3.7,1.4a6,6,0,0,0-1.74.66s.9.26.62,0c-.13-.14-.53-.2-.7-.27l-2.93-1.12-23.64-9L11.65,42.62c-2.14-.81-4.27-1.74-6.45-2.45l-.3-.12c-1.81-.68-2.59,2.22-.8,2.9Z" transform="translate(-3.09 -3.05)"/></g><g id="vertical-line"><path class="arrowDown-1" d="M52,58V4.5a1.5,1.5,0,0,0-3,0V58a1.5,1.5,0,0,0,3,0Z" transform="translate(-3.09 -3.05)"/></g></svg>