<svg xmlns="http://www.w3.org/2000/svg" viewBox="0 0 1827 519.77"><defs><style>.KEAtimeline-1,.KEAtimeline-3,.KEAtimeline-4{fill:#fff;}.KEAtimeline-2{fill:#5d77ff;}.KEAtimeline-3{stroke:#5d77ff;stroke-miterlimit:10;stroke-width:7px;}.KEAtimeline-4{font-size:48px;font-family:HelveticaNeue-CondensedBlack, Helvetica Neue;font-weight:800;}</style></defs><g id="timeline"><circle class="KEAtimeline-1" cx="66.5" cy="324" r="61.5"/><path class="KEAtimeline-2" d="M101.5,606A56.5,56.5,0,1,1,45,662.5,56.57,56.57,0,0,1,101.5,606m0-10A66.5,66.5,0,1,0,168,662.5,66.5,66.5,0,0,0,101.5,596Z" transform="translate(-35 -338.5)"/><circle class="KEAtimeline-1" cx="1760.5" cy="324" r="61.5"/><path class="KEAtimeline-2" d="M1795.5,606a56.5,56.5,0,1,1-56.5,56.5,56.57,56.57,0,0,1,56.5-56.5m0-10a66.5,66.5,0,1,0,66.5,66.5,66.5,66.5,0,0,0-66.5-66.5Z" transform="translate(-35 -338.5)"/><line class="KEAtimeline-3" x1="133.5" y1="324" x2="1693.5" y2="324"/></g><g id="person"><g id="right_leg"><line x1="743" y1="306.5" x2="743" y2="158.5"/><path class="KEAtimeline-1" d="M784,645V497c0-7.72-12-7.73-12,0V645c0,7.72,12,7.73,12,0Z" transform="translate(-35 -338.5)"/></g><g id="left_leg"><line class="KEAtimeline-1" x1="743" y1="306.5" x2="743" y2="158.5"/><path class="KEAtimeline-1" d="M784,645V497c0-7.72-12-7.73-12,0V645c0,7.72,12,7.73,12,0Z" transform="translate(-35 -338.5)"/></g><g id="torso"><line x1="743" y1="176.5" x2="743" y2="74.5"/><path class="KEAtimeline-1" d="M796,515V413c0-9.42-8.28-18.44-18-18s-18,7.91-18,18V515c0,9.42,8.28,18.44,18,18s18-7.91,18-18Z" transform="translate(-35 -338.5)"/></g><g id="left_arm"><line x1="743.5" y1="176.5" x2="743.5" y2="85.5"/><path class="KEAtimeline-1" d="M784.5,515V424c0-7.72-12-7.73-12,0v91c0,7.72,12,7.73,12,0Z" transform="translate(-35 -338.5)"/></g><g id="right_arm"><line class="KEAtimeline-1" x1="743.5" y1="176.5" x2="743.5" y2="85.5"/><path class="KEAtimeline-1" d="M784.5,515V424c0-7.72-12-7.73-12,0v91c0,7.72,12,7.73,12,0Z" transform="translate(-35 -338.5)"/></g><circle id="head" class="KEAtimeline-1" cx="743" cy="34.5" r="34.5"/></g><g id="description"><text class="KEAtimeline-4" transform="translate(1380.01 445.29)">My first internship!</text><text class="KEAtimeline-4" transform="translate(48.16 445.04)">MMD programme <tspan x="130.7" y="57.6">start</tspan></text></g></svg>